<?xml version="1.0" encoding="utf-8"?>
<!-- Generator: Adobe Illustrator 18.0.0, SVG Export Plug-In . SVG Version: 6.00 Build 0)  -->
<!DOCTYPE svg PUBLIC "-//W3C//DTD SVG 1.1//EN" "http://www.w3.org/Graphics/SVG/1.1/DTD/svg11.dtd">
<svg version="1.1" id="Layer_1" xmlns="http://www.w3.org/2000/svg" xmlns:xlink="http://www.w3.org/1999/xlink" x="0px" y="0px"
	 viewBox="0 0 1190.6 841.9" enable-background="new 0 0 1190.6 841.9" xml:space="preserve">
<path d="M863.6,75c-6.6-14.5-21-22.4-35.5-22.4H370.3c-15.8,0-28.9,9.2-35.5,22.4L174.3,401.2v388.1h841.9V402.5L863.6,75z
	 M378.2,105.2h440.7l129.9,276.2H746.6l-36.8,125c-2.6,3.9-2.6,6.6-22.4,6.6H503.2c-11.8,0-21-6.6-25-18.4L444,381.5H243
	L378.2,105.2z M226.9,736.7V434.1h177.6l23.7,75c9.2,34.2,39.5,56.6,75,56.6h184.2c15.8,0,59.2,0,72.3-44.7l26.3-86.8h177.6v302.6
	H226.9z"/>
</svg>
